<svg xmlns="http://www.w3.org/2000/svg" viewBox="0 0 834.34 657.16"><defs><style>.cls-1{fill:#3b95b6;}.cls-2{fill:#1c4076;}.cls-3{fill:#93bdd3;}</style></defs><title>Asset 1</title><g id="Layer_2" data-name="Layer 2"><g id="Layer_1-2" data-name="Layer 1"><path class="cls-1" d="M300.87,571.77c-.32-6.83-.77-13.65-.89-20.48a10.65,10.65,0,0,0-2.91-7.44q-20.18-22.51-40.17-45.19-34.77-39.23-69.53-78.47c-.58-.64-1-1.4-1.72-2.36,2.43-.92,4.46-.55,6.41-.55q54.38,0,108.75,0c7.94,0,6.77-.51,6.93-6.5q1.1-40.47,2.14-80.95,1.17-44.35,2.33-88.72c.08-2.95.43-5.9.48-8.85.2-10.35.94-20.71-1-31-.4-.77-.59-1.94-1.91-1.08q-24.49,60.38-49,120.76-14.49,35.71-29,71.42c-2,5-2.07,5-7.62,5q-43.29,0-86.58,0c-2,0-4-.4-6.33.54,1.06,2.34,2.75,4,4.27,5.77,19.55,22.7,39,45.45,58.74,68,3.14,3.59,3.3,6.45,1.43,10.78q-24,55.79-47.46,111.8c-1.62,3.87-3.66,5.15-7.78,5.14-45.14-.14-90.28-.09-135.42-.09-.56,0-1.11,0-1.67,0-3.79-.17-4-.37-2.61-3.8,3.74-9.05,7.6-18.06,11.44-27.07q44.58-104.58,89.18-209.15,43.1-101,86.22-202Q207,112,226.3,66.56c1.11-2.61,2.21-4.15,5.51-4.15q86.58.21,173.16.17c2.22,1.87,2.17,4.63,2.58,7.11q19.31,117.09,38.65,234.18c1.48,8.93,2.89,17.88,4.35,26.81a15,15,0,0,1-2.24,11.08q-48.18,75.83-96.06,151.84Q329,530.4,305.73,567.19C304.55,569.06,304,571.82,300.87,571.77Z"/><path class="cls-2" d="M581.82,657.16c-2.26-9.71-4.5-19.23-6.69-28.76q-29.14-127-58.27-254c-2.89-12.61-5.6-25.27-8.74-37.81a11.64,11.64,0,0,1,1.75-10.3q47.8-71.81,95.35-143.8,39.53-59.67,79-119.38c2.27-3.44,4.55-4.93,8.87-4.92,45.52.19,91,.12,136.55.12h4.65c.49,2.38-1.23,3.8-2.22,5.37q-45.56,71.61-91.18,143.18-34.26,53.81-68.6,107.58a14.77,14.77,0,0,0-2.38,11.38c5.53,32.43,10.8,64.92,16.15,97.38q8.1,49.26,16.23,98.5c3.79,23,7.54,46,11.43,68.94.51,3-.26,4.53-3.18,5.9q-62.68,29.51-125.26,59.27C584.26,656.3,583.21,656.63,581.82,657.16Z"/><path class="cls-2" d="M300.87,571.77c9.61-15.1,19.26-30.17,28.82-45.31q56.25-89,112.46-178.06c1.87-3,3.74-5.95,5.75-8.82a9.35,9.35,0,0,0,1.49-7.35Q440.15,277.14,431,222c-4.65-28.2-9.14-56.43-13.78-84.64-3.89-23.65-7.9-47.29-11.85-70.93-.21-1.28-.27-2.57-.4-3.86q38.25-18.24,76.52-36.48Q507,14,532.56,1.92c1.32-.62,2.66-1.2,4.27-1.92,2.2,6.53,3.16,13.09,4.54,19.52q16.83,78.32,33.55,156.65a11.92,11.92,0,0,1-2.24,10.62c-31.35,42.58-62.49,85.33-93.81,127.93a11.82,11.82,0,0,0-2.2,11.1c11.81,46.94,23.32,94,35,140.93a10.07,10.07,0,0,1-1.36,8.75c-19.38,29.95-38.45,60.11-58,90q-9.4,14.38-18.66,28.85c-1.42,2.24-2.9,3.3-5.7,3.3q-70.18-.14-140.39-.08c-.55,0-1.09-.11-2.36-.23Z"/><path class="cls-3" d="M309.82,200.19c.14-.86.46-2,1.45-1.57,1.14.44.58,1.69.46,2.65Z"/></g></g></svg>